Coordinates
version=1
nRows=37
nColumns=38
inDegrees=no

Units are S.I. units (second, meters, Newtons, ...)
If the header above contains a line with 'inDegrees', this indicates whether rotational values are in degrees (yes) or radians (no).

endheader
time	pelvis_tilt	pelvis_list	pelvis_rotation	pelvis_tx	pelvis_ty	pelvis_tz	hip_flexion_r	hip_adduction_r	hip_rotation_r	knee_angle_r	ankle_angle_r	subtalar_angle_r	mtp_angle_r	hip_flexion_l	hip_adduction_l	hip_rotation_l	knee_angle_l	ankle_angle_l	subtalar_angle_l	mtp_angle_l	lumbar_extension	lumbar_bending	lumbar_rotation	arm_flex_r	arm_add_r	arm_rot_r	elbow_flex_r	pro_sup_r	wrist_flex_r	wrist_dev_r	arm_flex_l	arm_add_l	arm_rot_l	elbow_flex_l	pro_sup_l	wrist_flex_l	wrist_dev_l
0.74	3.05789	1.45788	-1.40998	0.616245	0.0637042	0.938396	0.0665286	-0.140056	-0.0956567	1.26827	-0.490096	0	0	0.0111696	0.0231042	-0.314139	0.2081	-0.325654	0	0	-0.156857	0.00567845	-0.168726	-0.133814	-0.138583	-0.568077	0.576262	0.572065	0	0	-0.259931	-0.25219	-0.0719179	0.699052	1.5397	0	0
0.75	3.02845	1.45497	-1.38156	0.615347	0.0724378	0.939786	0.0956015	-0.140066	-0.0885333	1.29647	-0.460895	0	0	-0.00744806	0.0211596	-0.305145	0.195447	-0.321784	0	0	-0.161281	0.0110082	-0.171792	-0.12111	-0.122979	-0.635914	0.574436	0.655004	0	0	-0.252554	-0.251319	-0.0770188	0.699835	1.55865	0	0
0.76	2.99683	1.45292	-1.35117	0.614482	0.0811657	0.941012	0.125415	-0.138785	-0.0805129	1.31852	-0.445663	0	0	-0.0244033	0.0187213	-0.298128	0.184928	-0.317556	0	0	-0.163997	0.0165011	-0.17345	-0.120844	-0.126991	-0.626576	0.575846	0.65116	0	0	-0.243685	-0.252878	-0.0728739	0.699569	1.56576	0	0
0.77	2.96398	1.45185	-1.31964	0.613673	0.0898836	0.942024	0.155511	-0.136271	-0.0714864	1.3343	-0.433964	0	0	-0.0400104	0.0164179	-0.290987	0.174998	-0.312568	0	0	-0.165249	0.0222348	-0.174634	-0.120845	-0.130762	-0.617878	0.57762	0.644923	0	0	-0.233736	-0.254448	-0.0675509	0.698224	1.57033	0	0
0.78	2.93164	1.45012	-1.28874	0.612932	0.098568	0.942919	0.183628	-0.132694	-0.0623633	1.34341	-0.429598	0	0	-0.0550362	0.0132514	-0.287807	0.168292	-0.309801	0	0	-0.167626	0.0279479	-0.178987	-0.117086	-0.133426	-0.611137	0.577252	0.644224	0	0	-0.227108	-0.254852	-0.0679757	0.700291	1.5708	0	0
0.79	2.89843	1.44949	-1.25667	0.612235	0.107295	0.943604	0.211866	-0.128978	-0.0543011	1.3484	-0.417985	0	0	-0.0694153	0.0106101	-0.281398	0.159775	-0.304633	0	0	-0.167962	0.0337359	-0.180618	-0.115428	-0.133389	-0.614557	0.578764	0.653184	0	0	-0.217227	-0.256267	-0.0629496	0.699386	1.5708	0	0
0.8	2.86444	1.44933	-1.22355	0.611553	0.115996	0.944137	0.239373	-0.124762	-0.0467713	1.34903	-0.402522	0	0	-0.0835183	0.00810006	-0.273048	0.14983	-0.298962	0	0	-0.167386	0.0395832	-0.181507	-0.11433	-0.133161	-0.61839	0.580586	0.661199	0	0	-0.205759	-0.257936	-0.0560019	0.697274	1.5708	0	0
0.81	2.83124	1.4483	-1.19082	0.610882	0.124673	0.944653	0.264678	-0.120241	-0.0407136	1.34557	-0.388283	0	0	-0.0981258	0.00487684	-0.265862	0.140325	-0.294677	0	0	-0.167792	0.0456194	-0.182629	-0.112885	-0.133234	-0.620406	0.582246	0.666052	0	0	-0.193631	-0.259238	-0.0501753	0.69521	1.5708	0	0
0.82	2.79957	1.4472	-1.15906	0.610181	0.133325	0.945094	0.288603	-0.116029	-0.0363199	1.33852	-0.370169	0	0	-0.113305	0.00186535	-0.257422	0.1289	-0.290953	0	0	-0.167957	0.0516565	-0.183458	-0.111302	-0.133203	-0.623026	0.583582	0.669455	0	0	-0.179963	-0.260494	-0.0431046	0.691686	1.5708	0	0
0.83	2.77287	1.44633	-1.13188	0.609408	0.14187	0.945367	0.311892	-0.113254	-0.0344816	1.3278	-0.354163	0	0	-0.127764	-0.000752333	-0.252275	0.118741	-0.288384	0	0	-0.168352	0.057075	-0.18513	-0.108883	-0.133446	-0.624178	0.584601	0.67111	0	0	-0.166463	-0.261522	-0.036751	0.689048	1.5708	0	0
0.84	2.74779	1.44605	-1.10568	0.608606	0.150395	0.945481	0.334588	-0.111664	-0.0353547	1.31314	-0.334395	0	0	-0.142769	-0.00229142	-0.244562	0.105467	-0.286492	0	0	-0.167938	0.0617845	-0.186754	-0.11942	-0.157331	-0.534937	0.588344	0.574981	0	0	-0.151914	-0.262971	-0.0283287	0.685584	1.5708	0	0
0.85	2.72878	1.44456	-1.08478	0.607793	0.158883	0.945568	0.354168	-0.111156	-0.0399142	1.29444	-0.319608	0	0	-0.159791	-0.00356929	-0.236276	0.0906035	-0.286463	0	0	-0.168497	0.0672033	-0.184275	-0.111004	-0.138181	-0.610408	0.589815	0.653866	0	0	-0.131915	-0.264914	-0.011935	0.67792	1.5708	0	0
0.86	2.71265	1.44246	-1.06595	0.60695	0.167431	0.945569	0.371541	-0.112343	-0.0500612	1.27268	-0.311243	0	0	-0.176252	-0.0056506	-0.232212	0.0791982	-0.284174	0	0	-0.170458	0.072085	-0.18739	-0.108865	-0.139427	-0.605733	0.591297	0.650467	0	0	-0.117412	-0.265682	-0.00502325	0.675948	1.5708	0	0
0.87	2.70427	1.43941	-1.05363	0.606014	0.176077	0.945523	0.385943	-0.117035	-0.0693568	1.24812	-0.308311	0	0	-0.193236	-0.00791147	-0.229761	0.0698395	-0.281137	0	0	-0.173498	0.0767252	-0.19111	-0.107233	-0.140382	-0.601349	0.593828	0.645976	0	0	-0.102701	-0.266603	0.00281546	0.674655	1.5708	0	0
0.88	2.70385	1.435	-1.04747	0.604885	0.184858	0.945494	0.396755	-0.126682	-0.104273	1.22007	-0.31134	0	0	-0.210955	-0.0106786	-0.228564	0.062939	-0.27714	0	0	-0.177923	0.0814575	-0.195676	-0.106504	-0.141263	-0.596988	0.597523	0.640494	0	0	-0.0874941	-0.26745	0.0119302	0.67361	1.5708	0	0
0.89	2.70238	1.43047	-1.03986	0.603794	0.193509	0.945427	0.405003	-0.133344	-0.136396	1.18522	-0.316342	0	0	-0.227084	-0.0142852	-0.227406	0.0589731	-0.271706	0	0	-0.182727	0.0864064	-0.199634	-0.105877	-0.142368	-0.591693	0.601269	0.634373	0	0	-0.0709993	-0.26814	0.0222137	0.67194	1.5708	0	0
0.9	2.69671	1.42776	-1.02867	0.602911	0.202041	0.945103	0.413058	-0.135655	-0.156743	1.14613	-0.316424	0	0	-0.23964	-0.0179326	-0.226588	0.057606	-0.270761	0	0	-0.18701	0.0904184	-0.211169	-0.0956349	-0.14108	-0.591054	0.598652	0.644565	0	0	-0.0639476	-0.267145	0.0150476	0.679301	1.5708	0	0
0.91	2.68937	1.42684	-1.01695	0.602151	0.210567	0.944534	0.421378	-0.136449	-0.171009	1.10332	-0.320284	0	0	-0.249541	-0.0208219	-0.227078	0.0581662	-0.265381	0	0	-0.188805	0.0939546	-0.213418	-0.0924639	-0.139698	-0.594485	0.601267	0.648249	0	0	-0.0480057	-0.267301	0.0243988	0.678984	1.5708	0	0
0.92	2.68074	1.42759	-1.00485	0.601485	0.219137	0.943737	0.429638	-0.136313	-0.182306	1.05783	-0.323983	0	0	-0.257026	-0.0230303	-0.229556	0.060713	-0.258546	0	0	-0.188961	0.096547	-0.214094	-0.0898072	-0.138768	-0.596962	0.603494	0.651321	0	0	-0.0316146	-0.26721	0.0351818	0.678107	1.5708	0	0
0.93	2.67256	1.42934	-0.993408	0.600901	0.227709	0.942755	0.436685	-0.135857	-0.192448	1.00973	-0.324959	0	0	-0.262984	-0.0248482	-0.232691	0.0649121	-0.250451	0	0	-0.188301	0.0983027	-0.21388	-0.0872209	-0.137825	-0.599532	0.605577	0.652702	0	0	-0.0149525	-0.267032	0.047002	0.677254	1.5708	0	0
0.94	2.66269	1.43154	-0.980888	0.600441	0.23634	0.941607	0.442	-0.134574	-0.201464	0.958313	-0.323365	0	0	-0.268552	-0.0265506	-0.235122	0.0697536	-0.235249	0	0	-0.186146	0.0995308	-0.205942	-0.0989082	-0.15286	-0.547627	0.613712	0.580922	0	0	0.00925772	-0.267378	0.0735624	0.6696	1.5708	0	0
0.95	2.65612	1.43393	-0.972259	0.600083	0.245038	0.94036	0.444913	-0.132896	-0.209177	0.903704	-0.316961	0	0	-0.275903	-0.0270834	-0.23465	0.0708691	-0.224859	0	0	-0.184231	0.100281	-0.197254	-0.0937086	-0.134839	-0.614868	0.617846	0.643554	0	0	0.0331084	-0.266575	0.0990491	0.662349	1.5708	0	0
0.96	2.64598	1.43757	-0.960824	0.599891	0.253921	0.938956	0.446709	-0.130212	-0.215046	0.84571	-0.309281	0	0	-0.283083	-0.0270057	-0.233099	0.069836	-0.217859	0	0	-0.181641	0.099946	-0.194115	-0.0939615	-0.135489	-0.611155	0.620359	0.641034	0	0	0.0485717	-0.26537	0.11179	0.662949	1.5708	0	0
0.97	2.63279	1.44167	-0.94728	0.599926	0.262979	0.937447	0.446185	-0.125784	-0.218091	0.782793	-0.301119	0	0	-0.290591	-0.0268268	-0.2316	0.0673414	-0.211707	0	0	-0.178297	0.099124	-0.190371	-0.0939702	-0.135991	-0.607684	0.622262	0.638076	0	0	0.0626311	-0.264201	0.123958	0.664747	1.5708	0	0
0.98	2.616	1.4458	-0.931007	0.600183	0.272256	0.935853	0.442407	-0.119058	-0.217568	0.713764	-0.292815	0	0	-0.298618	-0.0269554	-0.230621	0.0639124	-0.206368	0	0	-0.174491	0.0981749	-0.186244	-0.0935408	-0.136245	-0.604659	0.623466	0.634481	0	0	0.0749985	-0.263159	0.135291	0.667996	1.5708	0	0
0.99	2.59582	1.44964	-0.912081	0.600642	0.281709	0.934208	0.434239	-0.109801	-0.21217	0.636502	-0.285634	0	0	-0.307138	-0.0275555	-0.230251	0.0601301	-0.200835	0	0	-0.170419	0.0972415	-0.180925	-0.0936908	-0.136551	-0.601686	0.62438	0.629506	0	0	0.0869323	-0.262148	0.147774	0.671546	1.5708	0	0
1	2.57385	1.45349	-0.891501	0.601205	0.291277	0.932517	0.421715	-0.0991065	-0.202534	0.551477	-0.280336	0	0	-0.315407	-0.0283311	-0.23005	0.0570963	-0.19529	0	0	-0.166147	0.0961403	-0.175976	-0.0938254	-0.136825	-0.59871	0.625077	0.624014	0	0	0.0975345	-0.261511	0.160621	0.67638	1.56751	0	0
1.01	2.54861	1.45802	-0.867176	0.601824	0.300999	0.930743	0.40613	-0.0882589	-0.189285	0.461502	-0.273101	0	0	-0.322272	-0.0290937	-0.229587	0.0556672	-0.190633	0	0	-0.161575	0.0946653	-0.177062	-0.0886686	-0.135034	-0.600059	0.622492	0.628842	0	0	0.100167	-0.26053	0.158311	0.687905	1.5708	0	0
1.02	2.53326	1.46004	-0.85184	0.602473	0.310764	0.92918	0.380865	-0.0757251	-0.167526	0.358879	-0.277898	0	0	-0.331075	-0.0311702	-0.230243	0.056296	-0.184178	0	0	-0.159275	0.0938401	-0.17212	-0.0885301	-0.132536	-0.606419	0.623804	0.626936	0	0	0.110489	-0.260159	0.172352	0.692884	1.56928	0	0
1.03	2.52279	1.46097	-0.840135	0.603122	0.320683	0.927629	0.349395	-0.0636526	-0.138622	0.250472	-0.292554	0	0	-0.339674	-0.0345295	-0.232564	0.0604539	-0.176783	0	0	-0.157822	0.0933646	-0.168407	-0.0893513	-0.130119	-0.611053	0.625802	0.624868	0	0	0.119797	-0.260628	0.188167	0.699264	1.56335	0	0
1.04	2.51494	1.46179	-0.830705	0.603881	0.330869	0.925948	0.315478	-0.0533298	-0.104345	0.144119	-0.319906	0	0	-0.347376	-0.0385509	-0.238009	0.0680364	-0.167148	0	0	-0.155501	0.0921661	-0.163676	-0.101749	-0.144402	-0.555538	0.631099	0.556545	0	0	0.129839	-0.263316	0.213516	0.705451	1.54558	0	0
1.05	2.51292	1.46256	-0.826495	0.604623	0.341244	0.924167	0.28368	-0.046051	-0.0735472	0.0524069	-0.354683	0	0	-0.353916	-0.0429706	-0.246608	0.0797867	-0.154081	0	0	-0.153127	0.0910281	-0.15888	-0.0995204	-0.127588	-0.608274	0.634204	0.607529	0	0	0.139309	-0.265228	0.237428	0.71152	1.53162	0	0
1.06	2.50739	1.4645	-0.817947	0.6051	0.351704	0.92233	0.268231	-0.0419281	-0.0696427	0.00693558	-0.36387	0	0	-0.357654	-0.0473176	-0.256345	0.0947805	-0.143358	0	0	-0.150002	0.0897665	-0.159999	-0.101979	-0.126249	-0.60512	0.637158	0.604546	0	0	0.141638	-0.266477	0.247568	0.723216	1.52656	0	0
1.07	2.50306	1.46501	-0.810932	0.605451	0.362145	0.920786	0.262872	-0.0371735	-0.0818148	0	-0.365323	0	0	-0.36243	-0.0523204	-0.265819	0.109511	-0.137238	0	0	-0.148592	0.0898363	-0.161519	-0.103641	-0.125455	-0.601463	0.639538	0.604267	0	0	0.142951	-0.266585	0.254103	0.734692	1.52518	0	0
1.08	2.49674	1.46351	-0.80237	0.605791	0.372644	0.919603	0.2589	-0.0303323	-0.091327	0	-0.365792	0	0	-0.368512	-0.0589495	-0.275171	0.124379	-0.133621	0	0	-0.148861	0.091824	-0.163228	-0.103656	-0.125037	-0.598362	0.64058	0.603537	0	0	0.143239	-0.266036	0.258423	0.745616	1.52514	0	0
1.09	2.4889	1.46039	-0.792527	0.606141	0.383266	0.918759	0.261566	-0.0222298	-0.108366	0.0245093	-0.358659	0	0	-0.37423	-0.067756	-0.287037	0.143059	-0.130703	0	0	-0.150673	0.0954177	-0.166039	-0.10203	-0.125167	-0.594216	0.640249	0.600682	0	0	0.141414	-0.265524	0.260058	0.757314	1.52567	0	0
1.1	2.48588	1.45574	-0.78734	0.606568	0.394117	0.918251	0.260981	-0.0129653	-0.117368	0.0507817	-0.366179	0	0	-0.382102	-0.077233	-0.295731	0.159605	-0.134573	0	0	-0.153473	0.0997186	-0.166896	-0.10055	-0.122952	-0.599547	0.639556	0.602784	0	0	0.141275	-0.264652	0.265471	0.765664	1.5263	0	0
